<svg width="840" height="102" viewBox="0 0 840 102" fill="none" xmlns="http://www.w3.org/2000/svg">
<path d="M781.714 7.70483C786.983 2.56828 792.976 0 799.694 0H839.111C839.374 0 839.572 0.101379 839.704 0.304138C839.901 0.43931 840 0.642069 840 0.912414V100.568C840 100.771 839.901 100.974 839.704 101.177C839.572 101.312 839.374 101.379 839.111 101.379H821.032C820.835 101.379 820.637 101.312 820.44 101.177C820.308 100.974 820.242 100.771 820.242 100.568V17.4372H803.744C801.505 17.4372 799.529 18.2821 797.817 19.9717L718.192 101.177C717.994 101.312 717.797 101.379 717.599 101.379H692.408C692.013 101.379 691.749 101.21 691.618 100.872C691.486 100.534 691.552 100.23 691.815 99.96L781.714 7.70483Z" fill="black"/>
<path d="M718.445 -1.52588e-05C718.233 -1.52588e-05 718.02 0.0675659 717.808 0.202744L620.79 99.7615C620.348 100.149 620.229 100.539 620.461 100.983C620.655 101.354 620.961 101.436 621.72 101.391L646.932 101.391L745.335 1.41929C745.618 1.14894 745.689 0.84481 745.547 0.506874C745.406 0.168945 745.122 -1.52588e-05 744.697 -1.52588e-05H718.445Z" fill="black"/>
<path d="M577.192 93.7759C571.985 98.8448 565.988 101.379 559.2 101.379H519.756C519.559 101.379 519.361 101.312 519.163 101.177C519.031 100.974 518.966 100.771 518.966 100.568V0.912414C518.966 0.642069 519.031 0.43931 519.163 0.304138C519.361 0.101379 519.559 0 519.756 0H537.847C538.111 0 538.308 0.101379 538.44 0.304138C538.638 0.43931 538.737 0.642069 538.737 0.912414V84.0434H555.147C557.387 84.0434 559.365 83.1986 561.078 81.509L640.756 0.304138C640.953 0.101379 641.151 0 641.349 0H666.557C666.953 0 667.216 0.168966 667.348 0.506897C667.48 0.844828 667.414 1.18276 667.15 1.52069L577.192 93.7759Z" fill="black"/>
<path d="M464.992 17.4133C462.29 17.4133 459.968 18.4995 458.027 20.6719L432.974 50.916L458.027 81.16C459.968 83.2645 462.29 84.3168 464.992 84.3168H493.996C494.204 84.3168 494.377 84.4186 494.516 84.6223C494.724 84.7581 494.828 84.9617 494.828 85.2333V100.915C494.828 101.187 494.724 101.425 494.516 101.628C494.377 101.764 494.204 101.832 493.996 101.832H463.225C455.186 101.832 448.256 98.6072 442.434 92.1579L420.604 65.7834L398.773 92.1579C392.951 98.6072 386.021 101.832 377.982 101.832H347.211C347.003 101.832 346.795 101.764 346.587 101.628C346.449 101.425 346.379 101.187 346.379 100.915V85.2333C346.379 84.9617 346.449 84.7581 346.587 84.6223C346.795 84.4186 347.003 84.3168 347.211 84.3168H376.215C378.917 84.3168 381.239 83.2645 383.18 81.16L408.233 50.916L383.18 20.6719C381.239 18.4995 378.952 17.4133 376.319 17.4133H347.211C347.003 17.4133 346.795 17.3454 346.587 17.2096C346.449 17.0059 346.379 16.8023 346.379 16.5986V0.814655C346.379 0.610991 346.449 0.441272 346.587 0.305496C346.795 0.101832 347.003 0 347.211 0H377.982C386.021 0 392.951 3.22468 398.773 9.67403L420.604 36.0485L442.538 9.67403C448.29 3.22468 455.186 0 463.225 0H493.996C494.204 0 494.377 0.101832 494.516 0.305496C494.724 0.441272 494.828 0.610991 494.828 0.814655V16.5986C494.828 16.8023 494.724 17.0059 494.516 17.2096C494.377 17.3454 494.204 17.4133 493.996 17.4133H464.992Z" fill="black"/>
<path d="M193.532 26.0545V41.971H306.323C306.602 41.971 306.812 42.0724 306.951 42.2752C307.161 42.4103 307.265 42.6131 307.265 42.8834V58.4959C307.265 58.7662 307.161 59.0028 306.951 59.2055C306.812 59.3407 306.602 59.4083 306.323 59.4083H193.532V75.3248C193.532 77.6903 194.404 79.7517 196.15 81.509C197.895 83.1986 200.025 84.0434 202.538 84.0434H321.299C321.578 84.0434 321.788 84.1448 321.927 84.3476C322.137 84.4828 322.241 84.6517 322.241 84.8545V100.467C322.241 100.737 322.137 100.974 321.927 101.177C321.788 101.312 321.578 101.379 321.299 101.379H202.538C194.23 101.379 187.143 98.5745 181.279 92.9648C175.484 87.2876 172.586 80.4276 172.586 72.3848V28.9945C172.586 20.9517 175.484 14.1255 181.279 8.51586C187.143 2.83862 194.23 0 202.538 0H321.299C321.578 0 321.788 0.101379 321.927 0.304138C322.137 0.43931 322.241 0.642069 322.241 0.912414V16.5248C322.241 16.7276 322.137 16.9303 321.927 17.1331C321.788 17.2683 321.578 17.3359 321.299 17.3359H202.538C200.025 17.3359 197.895 18.2145 196.15 19.9717C194.404 21.6614 193.532 23.689 193.532 26.0545Z" fill="black"/>
<path d="M127.657 0.912414C127.657 0.642069 127.727 0.43931 127.865 0.304138C128.073 0.101379 128.316 0 128.593 0H147.617C147.825 0 147.998 0.101379 148.136 0.304138C148.344 0.43931 148.448 0.642069 148.448 0.912414V100.568C148.448 100.771 148.344 100.974 148.136 101.177C147.998 101.312 147.825 101.379 147.617 101.379H108.945H108.737C100.767 101.177 94.4954 97.8986 89.9214 91.5455L41.5821 21.2897C39.5723 18.7214 37.0774 17.4372 34.0974 17.4372H20.7911V100.568C20.7911 100.771 20.6871 100.974 20.4792 101.177C20.3406 101.312 20.1327 101.379 19.8555 101.379H0.831643C0.623732 101.379 0.415821 101.312 0.207911 101.177C0.0693036 100.974 0 100.771 0 100.568V0.912414C0 0.642069 0.0693036 0.43931 0.207911 0.304138C0.415821 0.101379 0.623732 0 0.831643 0H39.503H39.711C47.6809 0.270345 53.9528 3.58207 58.5269 9.93517L106.866 80.0897C108.807 82.7255 111.302 84.0434 114.351 84.0434H127.657V0.912414Z" fill="black"/>
</svg>
